<svg width="140" height="38" viewBox="0 0 140 38" fill="none" xmlns="http://www.w3.org/2000/svg">
<g clip-path="url(#clip0_63_389)">
<path d="M31.736 4.81013C31.6958 4.85021 31.6155 4.85021 31.5753 4.8903C31.4146 5.17089 31.0129 5.17089 30.7317 5.29114C27.4376 6.61392 23.9426 7.37553 20.6887 8.81857C20.1263 9.05907 19.8049 8.81857 19.8451 8.17722C19.8852 7.65612 19.8852 7.05485 20.2468 6.65401C20.8092 5.97257 20.528 5.29114 20.3673 4.6097C20.1664 4.00844 19.7245 3.60759 19.0014 3.60759C18.3587 3.60759 17.957 3.96835 17.7561 4.56962C17.4749 5.33122 17.1937 6.05274 17.8766 6.73418C17.9971 6.85443 18.0373 7.05485 18.1176 7.25527C18.2783 7.77637 18.439 8.41772 18.0775 8.77848C17.7159 9.13924 17.274 8.65823 16.8321 8.49789C13.6585 7.41561 10.4448 6.29325 7.27116 5.25106C6.74892 5.09072 6.50789 4.93038 6.58823 4.68987L6.54806 4.72996C9.88235 1.76371 14.2611 0 19.0818 0C23.9426 0 28.3615 1.8038 31.736 4.81013ZM18.2382 36.7975C17.6758 34.3523 17.7159 31.827 17.033 29.3819C15.9483 25.3333 15.1851 21.3249 16.6714 17.1962C16.792 16.8354 16.8321 16.4747 16.7116 16.0738C16.1492 14.5105 15.7877 12.8671 15.627 11.2236C15.5466 10.3418 15.0244 9.74051 14.2209 9.41983C11.5294 8.37764 9.07891 6.97468 6.50789 5.6519C6.26686 5.53165 6.066 5.45148 5.86514 5.45148C5.78479 5.45148 5.70445 5.49156 5.6241 5.49156C2.1693 8.9789 0 13.7489 0 19.0401C0 29.1414 7.91392 37.3987 17.8766 38.0401C18.2783 37.8397 18.3587 37.3987 18.2382 36.7975ZM19.0416 24.9325C18.6399 28.7806 18.8006 32.6287 19.0416 36.4768C19.2826 32.6287 19.4433 28.7806 19.0416 24.9325ZM32.4591 5.49156C32.4189 5.49156 32.3788 5.53165 32.3386 5.57173C32.0574 5.53165 31.736 5.6519 31.3745 5.85232C29.1248 7.05485 26.835 8.25738 24.4648 9.21941C23.0588 9.78059 22.3759 10.6624 22.3357 12.0654C22.2956 12.7869 22.2152 13.5084 21.9742 14.1899C21.4118 15.7131 21.2109 17.1962 21.8135 18.8397C22.4562 20.5633 22.4964 22.4072 22.175 24.211C21.4519 28.0992 20.4878 31.9873 20.0057 35.9156C19.8852 37.038 19.845 37.6793 20.1263 37.9599C20.1263 38 20.1263 38 20.1263 38.0401C30.1693 37.4789 38.1234 29.1814 38.1234 19.0401C38.1234 13.7089 35.9541 8.93882 32.4591 5.49156Z" fill="#EF528A"/>
<path d="M44.8721 29.3418V11.5443H47.5636V19.0401H56.6425V11.5443H59.3341V29.3418H56.6425V20.924H47.5636V29.3418H44.8721ZM73.3943 28.9409C71.7071 29.4219 70.2207 29.6624 69.0155 29.6624C66.9668 29.6624 65.2795 29.0211 63.9538 27.7384C62.6683 26.4557 61.9854 24.8122 61.9854 22.7679C61.9854 20.8038 62.5478 19.1603 63.7128 17.8776C64.8778 16.5949 66.324 15.9937 68.1318 15.9937C69.819 15.9937 71.1447 16.5548 72.0686 17.6772C72.9926 18.7996 73.4345 20.403 73.4345 22.4473V23.1688H64.5966C64.9582 26.2553 66.6052 27.8186 69.4976 27.8186C70.5421 27.8186 71.8678 27.538 73.3943 27.0169V28.9409ZM64.7573 21.4051H70.9438C70.9438 18.9599 69.9797 17.7574 68.0112 17.7574C66.0428 17.7574 64.9582 19 64.7573 21.4051ZM76.2465 29.3418V16.2743H78.7774V18.7194C79.7817 16.8755 81.2279 15.9937 83.1561 15.9937C83.3972 15.9937 83.6784 16.0338 83.9596 16.0738V18.2785C83.5177 18.1582 83.116 18.0781 82.7946 18.0781C81.1877 18.0781 79.862 18.9599 78.7774 20.7637V29.3819H76.2465V29.3418ZM92.3154 29.7827C91.0299 29.7827 89.3828 29.5422 87.4144 28.981V26.4958C89.5435 27.4177 91.3111 27.8987 92.7171 27.8987C93.8018 27.8987 94.6454 27.6181 95.2881 27.097C95.9309 26.5759 96.2523 25.8945 96.2523 25.0527C96.2523 24.3713 96.0514 23.77 95.6095 23.289C95.1676 22.808 94.4044 22.2468 93.2394 21.6456L91.9137 20.924C90.3068 20.0422 89.1418 19.2405 88.4589 18.4789C87.7759 17.7173 87.4546 16.8354 87.4546 15.7932C87.4546 14.4304 87.9768 13.308 89.0615 12.3861C90.1461 11.5042 91.4718 11.0633 93.1188 11.0633C94.6052 11.0633 96.1318 11.3038 97.7788 11.7447V14.0696C95.7702 13.3481 94.2838 12.9473 93.2795 12.9473C92.3556 12.9473 91.5521 13.1878 90.9495 13.6287C90.347 14.1097 90.0256 14.6709 90.0256 15.3924C90.0256 15.9937 90.2666 16.5148 90.7085 16.9557C91.1504 17.3966 91.9538 17.9578 93.159 18.5992L94.5249 19.3207C96.1719 20.2025 97.3369 21.0042 97.9797 21.8059C98.6224 22.5675 98.9438 23.5295 98.9438 24.6118C98.9438 26.1751 98.3412 27.4177 97.0959 28.3397C95.9711 29.3418 94.324 29.7827 92.3154 29.7827ZM107.541 29.6624C105.653 29.6624 104.086 29.0211 102.841 27.6983C101.595 26.3755 100.952 24.7321 100.952 22.7679C100.952 20.6435 101.555 19 102.8 17.7975C104.046 16.5949 105.773 16.0338 107.983 16.0338C109.067 16.0338 110.313 16.1941 111.638 16.4747V18.4789C110.192 18.0781 109.027 17.8776 108.143 17.8776C106.858 17.8776 105.813 18.3186 105.01 19.2405C104.206 20.1624 103.845 21.365 103.845 22.8882C103.845 24.3713 104.247 25.5338 105.05 26.4557C105.853 27.3776 106.898 27.8186 108.224 27.8186C109.389 27.8186 110.594 27.538 111.799 26.9768V29.0211C110.152 29.4219 108.746 29.6624 107.541 29.6624ZM122.003 27.6983C120.476 29.0211 119.03 29.6624 117.624 29.6624C116.459 29.6624 115.495 29.3418 114.731 28.6603C113.968 27.9789 113.566 27.1371 113.566 26.0949C113.566 24.6519 114.209 23.5696 115.495 22.808C116.78 22.0464 118.628 21.6456 120.998 21.6456H121.601V20.0422C121.601 18.519 120.757 17.7574 119.11 17.7574C117.785 17.7574 116.338 18.1582 114.772 18.9198V16.9557C116.499 16.3143 118.066 15.9937 119.592 15.9937C121.159 15.9937 122.324 16.3143 123.047 16.9958C123.81 17.6371 124.172 18.6793 124.172 20.0823V26.0148C124.172 27.3776 124.614 28.0591 125.498 28.0591C125.618 28.0591 125.779 28.0591 125.98 28.019L126.14 29.3418C125.578 29.5823 124.935 29.7426 124.252 29.7426C123.087 29.6624 122.324 29.0211 122.003 27.6983ZM121.641 26.4156V23.0485L120.797 23.0084C119.391 23.0084 118.267 23.2489 117.423 23.73C116.579 24.211 116.138 24.8523 116.138 25.654C116.138 26.2152 116.338 26.6962 116.78 27.097C117.222 27.4979 117.744 27.6983 118.347 27.6983C119.391 27.6983 120.476 27.2975 121.641 26.4156ZM128.551 29.3418V16.2743H131.082V18.7194C132.407 16.8755 134.054 15.9937 136.023 15.9937C137.228 15.9937 138.192 16.3544 138.915 17.0759C139.638 17.7975 140 18.7595 140 19.962V29.3418H137.469V20.7236C137.469 19.7616 137.308 19.0802 137.027 18.6392C136.706 18.2384 136.224 18.038 135.5 18.038C133.934 18.038 132.488 19 131.122 20.884V29.3418H128.551Z" fill="#EF528A"/>
</g>
<defs>
<clipPath id="clip0_63_389">
<rect width="140" height="38" fill="white"/>
</clipPath>
</defs>
</svg>
